<svg xmlns="http://www.w3.org/2000/svg" width="100" height="100" class="w-full h-full" viewBox="0 0 100 100"><metadata><rdf:RDF xmlns:dc="http://purl.org/dc/elements/1.1/" xmlns:rdf="http://www.w3.org/1999/02/22-rdf-syntax-ns#"><rdf:Description><dc:creator>RealFaviconGenerator</dc:creator><dc:source>https://realfavicongenerator.net</dc:source></rdf:Description></rdf:RDF></metadata><g id="isotipo-correo-argentino" fill="#000" transform="matrix(2.376852, 0, 0, 2.376852, -93.201141, -111.433426)"><path id="path4586" d="m 80.699,57.653 c -1.243,-0.053 -2.487,-0.026 -3.757,-0.026 0.185,0.979 0.397,1.852 0.503,2.752 0.688,6.958 -4.789,13.097 -11.827,13.256 -5.08,0.132 -9.737,-2.937 -11.615,-7.699 -0.159,-0.397 -0.344,-0.529 -0.767,-0.529 -4.339,0.026 -8.652,0 -12.991,0 -0.159,0 -0.344,0 -0.556,0 0.027,0.212 0.027,0.397 0.053,0.556 2.328,11.007 13.176,18.283 24.289,16.245 9.922,-1.799 17.118,-10.239 17.251,-20.294 0.026,-1.243 -0.159,-2.513 -0.265,-3.757 0,-0.159 -0.185,-0.503 -0.318,-0.503 z"/><path id="path4588" d="m 65.195,69.692 c 4.63,0.026 8.308,-3.598 8.361,-8.176 0.026,-4.498 -3.651,-8.176 -8.149,-8.228 -4.577,-0.026 -8.308,3.625 -8.334,8.176 -0.026,4.498 3.625,8.202 8.122,8.228 z m 0.106,-12.515 c 2.434,0 4.366,1.931 4.366,4.366 0,2.381 -1.984,4.313 -4.366,4.313 -2.381,0 -4.339,-1.958 -4.339,-4.339 0,-2.408 1.931,-4.313 4.339,-4.34 z"/><path id="path4602" d="m 53.632,57.627 c -0.159,0 -0.344,0 -0.556,0 -4.26,0 -8.52,0 -12.779,0 -0.106,0 -0.238,-0.026 -0.318,0 -0.159,0.079 -0.37,0.212 -0.37,0.318 -0.132,1.164 -0.265,2.302 -0.397,3.519 4.71,0 9.26,0 13.811,0 0.212,-1.27 0.423,-2.514 0.609,-3.837 z"/></g><style>@media (prefers-color-scheme:light){:root{filter:none}}@media (prefers-color-scheme:dark){:root{filter:invert(100%)}}</style></svg>